{
  "accessors": [
    {
      "bufferView": 2,
      "componentType": 5126,
      "count": 2394,
      "max": [
        85.806358337402344,
        31.4371337890625,
        92.473098754882812
      ],
      "min": [
        -85.806365966796875,
        -31.437129974365234,
        -92.473091125488281
      ],
      "type": "VEC3"
    },
    {
      "bufferView": 2,
      "byteOffset": 28728,
      "componentType": 5126,
      "count": 2394,
      "max": [
        0.99952989816665649,
        0.9999539852142334,
        0.9996834397315979
      ],
      "min": [
        -0.99959021806716919,
        -0.99996089935302734,
        -0.99848294258117676
      ],
      "type": "VEC3"
    },
    {
      "bufferView": 3,
      "componentType": 5126,
      "count": 2394,
      "max": [
        0.99999171495437622,
        0.99941158294677734,
        0.92005980014801025,
        1
      ],
      "min": [
        -0.99265754222869873,
        -0.99894905090332031,
        -0.96350669860839844,
        -1
      ],
      "type": "VEC4"
    },
    {
      "bufferView": 1,
      "componentType": 5126,
      "count": 2394,
      "max": [
        0.88758385181427002,
        0.97694939374923706
      ],
      "min": [
        0.091755449771881104,
        0.030767910182476044
      ],
      "type": "VEC2"
    },
    {
      "bufferView": 2,
      "byteOffset": 57456,
      "componentType": 5126,
      "count": 2394,
      "max": [
        4.6722793579101562,
        15.933515548706055,
        3.1839332580566406
      ],
      "min": [
        -7.262969970703125,
        -7.8336257934570312,
        -2.8642594814300537
      ],
      "type": "VEC3"
    },
    {
      "bufferView": 2,
      "byteOffset": 86184,
      "componentType": 5126,
      "count": 2394,
      "max": [
        0.43572363257408142,
        0.38758471608161926,
        0.24396559596061707
      ],
      "min": [
        -0.2983594536781311,
        -0.18832337856292725,
        -0.424968421459198
      ],
      "type": "VEC3"
    },
    {
      "bufferView": 2,
      "byteOffset": 114912,
      "componentType": 5126,
      "count": 2394,
      "max": [
        0,
        0,
        0
      ],
      "min": [
        0,
        0,
        0
      ],
      "type": "VEC3"
    },
    {
      "bufferView": 0,
      "componentType": 5125,
      "count": 12066,
      "max": [
        2393
      ],
      "min": [
        0
      ],
      "type": "SCALAR"
    },
    {
      "bufferView": 4,
      "componentType": 5126,
      "count": 211,
      "max": [
        7
      ],
      "min": [
        0
      ],
      "type": "SCALAR"
    },
    {
      "bufferView": 4,
      "byteOffset": 844,
      "componentType": 5126,
      "count": 211,
      "max": [
        1
      ],
      "min": [
        2.3398865067747465e-09
      ],
      "type": "SCALAR"
    }
  ],
  "animations": [
    {
      "channels": [
        {
          "sampler": 0,
          "target": {
            "node": 6,
            "path": "weights"
          }
        }
      ],
      "name": "Take 001",
      "samplers": [
        {
          "input": 8,
          "interpolation": "LINEAR",
          "output": 9
        }
      ]
    }
  ],
  "asset": {
    "extras": {
      "author": "darklordflash (https://sketchfab.com/darklordflash)",
      "license": "CC-BY-4.0 (http://creativecommons.org/licenses/by/4.0/)",
      "source": "https://sketchfab.com/models/b2c33d70ba1f4c08a477943b7aed7093",
      "title": "Lungs with Animation"
    },
    "generator": "Sketchfab-3.19.7",
    "version": "2.0"
  },
  "bufferViews": [
    {
      "buffer": 0,
      "byteLength": 48264,
      "byteOffset": 0,
      "name": "floatBufferViews",
      "target": 34963
    },
    {
      "buffer": 0,
      "byteLength": 19152,
      "byteOffset": 48264,
      "byteStride": 8,
      "name": "floatBufferViews",
      "target": 34962
    },
    {
      "buffer": 0,
      "byteLength": 143640,
      "byteOffset": 67416,
      "byteStride": 12,
      "name": "floatBufferViews",
      "target": 34962
    },
    {
      "buffer": 0,
      "byteLength": 38304,
      "byteOffset": 211056,
      "byteStride": 16,
      "name": "floatBufferViews",
      "target": 34962
    },
    {
      "buffer": 0,
      "byteLength": 1688,
      "byteOffset": 249360,
      "name": "floatBufferViews"
    }
  ],
  "buffers": [
    {
      "byteLength": 251048,
      "uri": "scene.bin"
    }
  ],
  "images": [
    {
      "uri": "textures/17_-_Def3423ault_baseColor.png"
    },
    {
      "uri": "textures/17_-_Def3423ault_normal.png"
    },
    {
      "uri": "textures/17_-_Def3423ault_metallicRoughness.png"
    }
  ],
  "materials": [
    {
      "doubleSided": false,
      "name": "17_-_Def3423ault",
      "normalTexture": {
        "index": 1,
        "scale": 0.69512195119999998,
        "texCoord": 0
      },
      "occlusionTexture": {
        "index": 2,
        "strength": 0.25,
        "texCoord": 0
      },
      "pbrMetallicRoughness": {
        "baseColorFactor": [
          1,
          1,
          1,
          1
        ],
        "baseColorTexture": {
          "index": 0,
          "texCoord": 0
        },
        "metallicFactor": 1,
        "metallicRoughnessTexture": {
          "index": 2,
          "texCoord": 0
        },
        "roughnessFactor": 1
      }
    }
  ],
  "meshes": [
    {
      "name": "0",
      "primitives": [
        {
          "attributes": {
            "NORMAL": 1,
            "POSITION": 0,
            "TANGENT": 2,
            "TEXCOORD_0": 3
          },
          "indices": 7,
          "material": 0,
          "mode": 4,
          "targets": [
            {
              "NORMAL": 5,
              "POSITION": 4,
              "TANGENT": 6
            }
          ]
        }
      ],
      "weights": [
        0
      ]
    }
  ],
  "nodes": [
    {
      "children": [
        1
      ],
      "name": "RootNode (gltf orientation matrix)",
      "rotation": [
        -0.70710678118654746,
        -0,
        -0,
        0.70710678118654757
      ]
    },
    {
      "children": [
        2
      ],
      "matrix": [
        -0.99999886751174927,
        0,
        0.0015084916958585382,
        0,
        0,
        1,
        0,
        0,
        -0.0015084916958585382,
        0,
        -0.99999886751174927,
        0,
        1.2954440116882324,
        0.00020599369599949569,
        -0.00069611170329153538,
        1
      ],
      "name": "RootNode (model correction matrix)"
    },
    {
      "children": [
        3
      ],
      "matrix": [
        1,
        0,
        0,
        0,
        0,
        -1,
        0,
        0,
        0,
        0,
        -1,
        0,
        0,
        0,
        0,
        1
      ],
      "name": "559d9b935ea1461b995fac861a11aa1c.fbx"
    },
    {
      "children": [
        4
      ],
      "name": ""
    },
    {
      "children": [
        5
      ],
      "name": "RootNode"
    },
    {
      "children": [
        6
      ],
      "name": "Object008",
      "translation": [
        0,
        9.9999990463256836,
        1.1734664440155029e-07
      ]
    },
    {
      "mesh": 0,
      "name": "0"
    }
  ],
  "samplers": [
    {
      "magFilter": 9729,
      "minFilter": 9987,
      "wrapS": 10497,
      "wrapT": 10497
    }
  ],
  "scene": 0,
  "scenes": [
    {
      "name": "OSG_Scene",
      "nodes": [
        0
      ]
    }
  ],
  "textures": [
    {
      "sampler": 0,
      "source": 0
    },
    {
      "sampler": 0,
      "source": 1
    },
    {
      "sampler": 0,
      "source": 2
    }
  ]
}

