{
    "asset" : {
        "generator" : "Khronos glTF Blender I/O v0.9.36",
        "version" : "2.0"
    },
    "scene" : 0,
    "scenes" : [
        {
            "name" : "Scene",
            "nodes" : [
                0,
                1,
                2,
                3,
                4,
                5,
                6,
                7,
                8,
                9,
                10,
                11
            ]
        }
    ],
    "nodes" : [
        {
            "name" : "Cilindro.005",
            "rotation" : [
                -9.971414328902029e-06,
                0.9935449361801147,
                -0.11343920230865479,
                -8.733355207368731e-05
            ],
            "scale" : [
                0.1211342066526413,
                2.9969089031219482,
                0.1211342066526413
            ],
            "translation" : [
                5.346542835235596,
                5.497686386108398,
                -2.6598165035247803
            ]
        },
        {
            "mesh" : 0,
            "name" : "Cilindro.004",
            "rotation" : [
                -0.0032919214572757483,
                0.9931265115737915,
                -0.11339142173528671,
                -0.02883193828165531
            ],
            "scale" : [
                0.1211342066526413,
                2.9969089031219482,
                0.1211342066526413
            ],
            "translation" : [
                6.271544456481934,
                5.969641208648682,
                -2.631154775619507
            ]
        },
        {
            "mesh" : 1,
            "name" : "Cilindro.003",
            "rotation" : [
                -0.0032919214572757483,
                0.9931265115737915,
                -0.11339142173528671,
                -0.02883193828165531
            ],
            "scale" : [
                0.1211342066526413,
                2.9969089031219482,
                0.1211342066526413
            ],
            "translation" : [
                7.458108425140381,
                5.969641208648682,
                -2.631154775619507
            ]
        },
        {
            "name" : "Hemisf\u00e9rica",
            "translation" : [
                7.202781677246094,
                20.107868194580078,
                -0.5049281120300293
            ]
        },
        {
            "mesh" : 2,
            "name" : "Esfera UV.002",
            "rotation" : [
                -0.06635554134845734,
                0.011077121831476688,
                0.164284348487854,
                0.9841163158416748
            ],
            "scale" : [
                4.452859878540039,
                -0.3203341066837311,
                1.1365748643875122
            ],
            "translation" : [
                1.8447178602218628,
                1.5364964008331299,
                -0.4621025025844574
            ]
        },
        {
            "mesh" : 3,
            "name" : "Esfera UV.001",
            "rotation" : [
                -0.0007561618695035577,
                0.00012623053044080734,
                0.16465730965137482,
                0.9863505363464355
            ],
            "scale" : [
                4.452859878540039,
                -0.3203341066837311,
                1.1365748643875122
            ],
            "translation" : [
                1.8447178602218628,
                1.5364964008331299,
                0.16945478320121765
            ]
        },
        {
            "mesh" : 4,
            "name" : "Cilindro.002",
            "rotation" : [
                0.11343920230865479,
                0,
                0,
                0.9935449361801147
            ],
            "scale" : [
                0.1211342066526413,
                2.9969089031219482,
                0.1211342066526413
            ],
            "translation" : [
                7.710109233856201,
                5.456477165222168,
                2.3062946796417236
            ]
        },
        {
            "mesh" : 5,
            "name" : "Cilindro.001",
            "rotation" : [
                0.11343920230865479,
                0,
                0,
                0.9935449361801147
            ],
            "scale" : [
                0.1211342066526413,
                2.9969089031219482,
                0.1211342066526413
            ],
            "translation" : [
                6.611161231994629,
                5.456477165222168,
                2.3062946796417236
            ]
        },
        {
            "mesh" : 6,
            "name" : "Esfera UV",
            "rotation" : [
                0,
                0,
                0.1646573692560196,
                0.9863508343696594
            ],
            "scale" : [
                3.5758538246154785,
                1.1365748643875122,
                1.1365748643875122
            ],
            "translation" : [
                1.642694115638733,
                0.39023950695991516,
                -0.012668609619140625
            ]
        },
        {
            "mesh" : 7,
            "name" : "Cilindro",
            "rotation" : [
                0.057007696479558945,
                0,
                0,
                0.9983737468719482
            ],
            "scale" : [
                0.1211342066526413,
                2.9969089031219482,
                0.1211342066526413
            ],
            "translation" : [
                5.576077938079834,
                5.787501335144043,
                0.31781554222106934
            ]
        },
        {
            "mesh" : 8,
            "name" : "Cube",
            "scale" : [
                1.9990800619125366,
                1,
                1
            ],
            "translation" : [
                0,
                1.4422776699066162,
                0
            ]
        },
        {
            "name" : "Camera",
            "rotation" : [
                -0.6270084381103516,
                -0.23864465951919556,
                0.21044732630252838,
                -0.7110703587532043
            ],
            "translation" : [
                21.789390563964844,
                4.6710710525512695,
                25.410385131835938
            ]
        }
    ],
    "materials" : [
        {
            "doubleSided" : true,
            "name" : "Materiais",
            "pbrMetallicRoughness" : {}
        },
        {
            "doubleSided" : true,
            "name" : "Materiais.001",
            "pbrMetallicRoughness" : {}
        },
        {
            "doubleSided" : true,
            "name" : "Material.001",
            "pbrMetallicRoughness" : {}
        }
    ],
    "meshes" : [
        {
            "name" : "Cilindro.002",
            "primitives" : [
                {
                    "attributes" : {
                        "POSITION" : 0,
                        "NORMAL" : 1
                    },
                    "indices" : 2,
                    "material" : 0
                }
            ]
        },
        {
            "name" : "Cilindro.001",
            "primitives" : [
                {
                    "attributes" : {
                        "POSITION" : 3,
                        "NORMAL" : 4
                    },
                    "indices" : 2,
                    "material" : 0
                }
            ]
        },
        {
            "name" : "Esfera UV.002",
            "primitives" : [
                {
                    "attributes" : {
                        "POSITION" : 5,
                        "NORMAL" : 6
                    },
                    "indices" : 7,
                    "material" : 1
                }
            ]
        },
        {
            "name" : "Esfera UV.000",
            "primitives" : [
                {
                    "attributes" : {
                        "POSITION" : 8,
                        "NORMAL" : 9
                    },
                    "indices" : 7,
                    "material" : 1
                }
            ]
        },
        {
            "name" : "Cilindro.007",
            "primitives" : [
                {
                    "attributes" : {
                        "POSITION" : 10,
                        "NORMAL" : 11
                    },
                    "indices" : 2,
                    "material" : 0
                }
            ]
        },
        {
            "name" : "Cilindro.006",
            "primitives" : [
                {
                    "attributes" : {
                        "POSITION" : 12,
                        "NORMAL" : 13
                    },
                    "indices" : 14,
                    "material" : 0
                }
            ]
        },
        {
            "name" : "Esfera UV.001",
            "primitives" : [
                {
                    "attributes" : {
                        "POSITION" : 15,
                        "NORMAL" : 16
                    },
                    "indices" : 17,
                    "material" : 0
                }
            ]
        },
        {
            "name" : "Cilindro",
            "primitives" : [
                {
                    "attributes" : {
                        "POSITION" : 18,
                        "NORMAL" : 19
                    },
                    "indices" : 20,
                    "material" : 0
                }
            ]
        },
        {
            "name" : "Cube",
            "primitives" : [
                {
                    "attributes" : {
                        "POSITION" : 21,
                        "NORMAL" : 22,
                        "TEXCOORD_0" : 23
                    },
                    "indices" : 24,
                    "material" : 2
                }
            ]
        }
    ],
    "accessors" : [
        {
            "bufferView" : 0,
            "componentType" : 5126,
            "count" : 2880,
            "max" : [
                1.7223840951919556,
                0.6864598393440247,
                37.09100341796875
            ],
            "min" : [
                -5.589959621429443,
                -2.3706772327423096,
                -5.586758613586426
            ],
            "type" : "VEC3"
        },
        {
            "bufferView" : 1,
            "componentType" : 5126,
            "count" : 2880,
            "type" : "VEC3"
        },
        {
            "bufferView" : 2,
            "componentType" : 5123,
            "count" : 4392,
            "type" : "SCALAR"
        },
        {
            "bufferView" : 3,
            "componentType" : 5126,
            "count" : 2880,
            "max" : [
                1.7223840951919556,
                0.6864598393440247,
                37.09100341796875
            ],
            "min" : [
                -5.589959621429443,
                -2.3706772327423096,
                -5.586758613586426
            ],
            "type" : "VEC3"
        },
        {
            "bufferView" : 4,
            "componentType" : 5126,
            "count" : 2880,
            "type" : "VEC3"
        },
        {
            "bufferView" : 5,
            "componentType" : 5126,
            "count" : 482,
            "max" : [
                0.9628520607948303,
                -0.08765864372253418,
                1.0000003576278687
            ],
            "min" : [
                -0.8562836050987244,
                -1.5105763673782349,
                -1
            ],
            "type" : "VEC3"
        },
        {
            "bufferView" : 6,
            "componentType" : 5126,
            "count" : 482,
            "type" : "VEC3"
        },
        {
            "bufferView" : 7,
            "componentType" : 5123,
            "count" : 2880,
            "type" : "SCALAR"
        },
        {
            "bufferView" : 8,
            "componentType" : 5126,
            "count" : 482,
            "max" : [
                0.9628520607948303,
                -0.08765864372253418,
                1.0000003576278687
            ],
            "min" : [
                -0.8562836050987244,
                -1.5105763673782349,
                -1
            ],
            "type" : "VEC3"
        },
        {
            "bufferView" : 9,
            "componentType" : 5126,
            "count" : 482,
            "type" : "VEC3"
        },
        {
            "bufferView" : 10,
            "componentType" : 5126,
            "count" : 2880,
            "max" : [
                1.7223840951919556,
                0.6864598393440247,
                37.09100341796875
            ],
            "min" : [
                -5.589959621429443,
                -2.3706772327423096,
                -5.586758613586426
            ],
            "type" : "VEC3"
        },
        {
            "bufferView" : 11,
            "componentType" : 5126,
            "count" : 2880,
            "type" : "VEC3"
        },
        {
            "bufferView" : 12,
            "componentType" : 5126,
            "count" : 2880,
            "max" : [
                1.7223840951919556,
                0.6864598393440247,
                36.88582992553711
            ],
            "min" : [
                -5.589959621429443,
                -2.3745737075805664,
                -5.586758613586426
            ],
            "type" : "VEC3"
        },
        {
            "bufferView" : 13,
            "componentType" : 5126,
            "count" : 2880,
            "type" : "VEC3"
        },
        {
            "bufferView" : 14,
            "componentType" : 5123,
            "count" : 4392,
            "type" : "SCALAR"
        },
        {
            "bufferView" : 15,
            "componentType" : 5126,
            "count" : 482,
            "max" : [
                1.000000238418579,
                1.0083727836608887,
                1.0000003576278687
            ],
            "min" : [
                -0.9309327602386475,
                -1,
                -1
            ],
            "type" : "VEC3"
        },
        {
            "bufferView" : 16,
            "componentType" : 5126,
            "count" : 482,
            "type" : "VEC3"
        },
        {
            "bufferView" : 17,
            "componentType" : 5123,
            "count" : 2880,
            "type" : "SCALAR"
        },
        {
            "bufferView" : 18,
            "componentType" : 5126,
            "count" : 2880,
            "max" : [
                2.3244400024414062,
                0.8009437918663025,
                42.955997467041016
            ],
            "min" : [
                -40.91402816772461,
                -2.0874407291412354,
                6.2893595695495605
            ],
            "type" : "VEC3"
        },
        {
            "bufferView" : 19,
            "componentType" : 5126,
            "count" : 2880,
            "type" : "VEC3"
        },
        {
            "bufferView" : 20,
            "componentType" : 5123,
            "count" : 4392,
            "type" : "SCALAR"
        },
        {
            "bufferView" : 21,
            "componentType" : 5126,
            "count" : 37888,
            "max" : [
                5.881887435913086,
                2.99565052986145,
                1.3608808517456055
            ],
            "min" : [
                1.9503618478775024,
                -1.135743260383606,
                -1.360107660293579
            ],
            "type" : "VEC3"
        },
        {
            "bufferView" : 22,
            "componentType" : 5126,
            "count" : 37888,
            "type" : "VEC3"
        },
        {
            "bufferView" : 23,
            "componentType" : 5126,
            "count" : 37888,
            "type" : "VEC2"
        },
        {
            "bufferView" : 24,
            "componentType" : 5123,
            "count" : 55296,
            "type" : "SCALAR"
        }
    ],
    "bufferViews" : [
        {
            "buffer" : 0,
            "byteLength" : 34560,
            "byteOffset" : 0
        },
        {
            "buffer" : 0,
            "byteLength" : 34560,
            "byteOffset" : 34560
        },
        {
            "buffer" : 0,
            "byteLength" : 8784,
            "byteOffset" : 69120
        },
        {
            "buffer" : 0,
            "byteLength" : 34560,
            "byteOffset" : 77904
        },
        {
            "buffer" : 0,
            "byteLength" : 34560,
            "byteOffset" : 112464
        },
        {
            "buffer" : 0,
            "byteLength" : 5784,
            "byteOffset" : 147024
        },
        {
            "buffer" : 0,
            "byteLength" : 5784,
            "byteOffset" : 152808
        },
        {
            "buffer" : 0,
            "byteLength" : 5760,
            "byteOffset" : 158592
        },
        {
            "buffer" : 0,
            "byteLength" : 5784,
            "byteOffset" : 164352
        },
        {
            "buffer" : 0,
            "byteLength" : 5784,
            "byteOffset" : 170136
        },
        {
            "buffer" : 0,
            "byteLength" : 34560,
            "byteOffset" : 175920
        },
        {
            "buffer" : 0,
            "byteLength" : 34560,
            "byteOffset" : 210480
        },
        {
            "buffer" : 0,
            "byteLength" : 34560,
            "byteOffset" : 245040
        },
        {
            "buffer" : 0,
            "byteLength" : 34560,
            "byteOffset" : 279600
        },
        {
            "buffer" : 0,
            "byteLength" : 8784,
            "byteOffset" : 314160
        },
        {
            "buffer" : 0,
            "byteLength" : 5784,
            "byteOffset" : 322944
        },
        {
            "buffer" : 0,
            "byteLength" : 5784,
            "byteOffset" : 328728
        },
        {
            "buffer" : 0,
            "byteLength" : 5760,
            "byteOffset" : 334512
        },
        {
            "buffer" : 0,
            "byteLength" : 34560,
            "byteOffset" : 340272
        },
        {
            "buffer" : 0,
            "byteLength" : 34560,
            "byteOffset" : 374832
        },
        {
            "buffer" : 0,
            "byteLength" : 8784,
            "byteOffset" : 409392
        },
        {
            "buffer" : 0,
            "byteLength" : 454656,
            "byteOffset" : 418176
        },
        {
            "buffer" : 0,
            "byteLength" : 454656,
            "byteOffset" : 872832
        },
        {
            "buffer" : 0,
            "byteLength" : 303104,
            "byteOffset" : 1327488
        },
        {
            "buffer" : 0,
            "byteLength" : 110592,
            "byteOffset" : 1630592
        }
    ],
    "buffers" : [
        {
            "byteLength" : 1741184,
            "uri" : "data:application/octet-stream;base64,"
        }
    ]
}
