{
    "asset" : {
        "generator" : "Khronos glTF Blender I/O v0.9.36",
        "version" : "2.0"
    },
    "scene" : 0,
    "scenes" : [
        {
            "name" : "Scene",
            "nodes" : [
                0,
                1
            ]
        }
    ],
    "nodes" : [
        {
            "name" : "Hemi",
            "rotation" : [
                0.28179237246513367,
                -0.05256548523902893,
                -0.21575132012367249,
                0.9334245324134827
            ],
            "translation" : [
                5.930939674377441,
                6.726874351501465,
                6.107477188110352
            ]
        },
        {
            "mesh" : 0,
            "name" : "eyeball_1",
            "rotation" : [
                0.7071067690849304,
                0,
                0,
                0.7071068286895752
            ]
        }
    ],
    "materials" : [
        {
            "doubleSided" : true,
            "name" : "Eye_white",
            "pbrMetallicRoughness" : {}
        },
        {
            "doubleSided" : true,
            "name" : "Eye_Tranz.001",
            "pbrMetallicRoughness" : {}
        },
        {
            "doubleSided" : true,
            "name" : "EyeBlack",
            "pbrMetallicRoughness" : {}
        },
        {
            "doubleSided" : true,
            "name" : "Eye_Iris",
            "pbrMetallicRoughness" : {}
        }
    ],
    "meshes" : [
        {
            "name" : "eye_1",
            "primitives" : [
                {
                    "attributes" : {
                        "POSITION" : 0,
                        "NORMAL" : 1,
                        "TEXCOORD_0" : 2
                    },
                    "indices" : 3,
                    "material" : 0
                },
                {
                    "attributes" : {
                        "POSITION" : 4,
                        "NORMAL" : 5,
                        "TEXCOORD_0" : 6
                    },
                    "indices" : 7,
                    "material" : 1
                },
                {
                    "attributes" : {
                        "POSITION" : 8,
                        "NORMAL" : 9,
                        "TEXCOORD_0" : 10
                    },
                    "indices" : 11,
                    "material" : 2
                },
                {
                    "attributes" : {
                        "POSITION" : 12,
                        "NORMAL" : 13,
                        "TEXCOORD_0" : 14
                    },
                    "indices" : 15,
                    "material" : 3
                }
            ]
        }
    ],
    "accessors" : [
        {
            "bufferView" : 0,
            "componentType" : 5126,
            "count" : 417,
            "max" : [
                1.9532814025878906,
                1.8173907995224,
                1.9533451795578003
            ],
            "min" : [
                -1.9532814025878906,
                -1.9533281326293945,
                -1.9533451795578003
            ],
            "type" : "VEC3"
        },
        {
            "bufferView" : 1,
            "componentType" : 5126,
            "count" : 417,
            "type" : "VEC3"
        },
        {
            "bufferView" : 2,
            "componentType" : 5126,
            "count" : 417,
            "type" : "VEC2"
        },
        {
            "bufferView" : 3,
            "componentType" : 5123,
            "count" : 2400,
            "type" : "SCALAR"
        },
        {
            "bufferView" : 4,
            "componentType" : 5126,
            "count" : 97,
            "max" : [
                0.7356276512145996,
                1.9753676652908325,
                0.7503015398979187
            ],
            "min" : [
                -0.7649251818656921,
                1.8052572011947632,
                -0.7503015398979187
            ],
            "type" : "VEC3"
        },
        {
            "bufferView" : 5,
            "componentType" : 5126,
            "count" : 97,
            "type" : "VEC3"
        },
        {
            "bufferView" : 6,
            "componentType" : 5126,
            "count" : 97,
            "type" : "VEC2"
        },
        {
            "bufferView" : 7,
            "componentType" : 5123,
            "count" : 480,
            "type" : "SCALAR"
        },
        {
            "bufferView" : 8,
            "componentType" : 5126,
            "count" : 65,
            "max" : [
                0.7356324195861816,
                1.8173917531967163,
                0.7503020763397217
            ],
            "min" : [
                -0.7649199366569519,
                1.6939473152160645,
                -0.7503015398979187
            ],
            "type" : "VEC3"
        },
        {
            "bufferView" : 9,
            "componentType" : 5126,
            "count" : 65,
            "type" : "VEC3"
        },
        {
            "bufferView" : 10,
            "componentType" : 5126,
            "count" : 65,
            "type" : "VEC2"
        },
        {
            "bufferView" : 11,
            "componentType" : 5123,
            "count" : 288,
            "type" : "SCALAR"
        },
        {
            "bufferView" : 12,
            "componentType" : 5126,
            "count" : 64,
            "max" : [
                0.7356324195861816,
                1.8173902034759521,
                0.7503019571304321
            ],
            "min" : [
                -0.7649199366569519,
                1.7596138715744019,
                -0.7503014802932739
            ],
            "type" : "VEC3"
        },
        {
            "bufferView" : 13,
            "componentType" : 5126,
            "count" : 64,
            "type" : "VEC3"
        },
        {
            "bufferView" : 14,
            "componentType" : 5126,
            "count" : 64,
            "type" : "VEC2"
        },
        {
            "bufferView" : 15,
            "componentType" : 5123,
            "count" : 192,
            "type" : "SCALAR"
        }
    ],
    "bufferViews" : [
        {
            "buffer" : 0,
            "byteLength" : 5004,
            "byteOffset" : 0
        },
        {
            "buffer" : 0,
            "byteLength" : 5004,
            "byteOffset" : 5004
        },
        {
            "buffer" : 0,
            "byteLength" : 3336,
            "byteOffset" : 10008
        },
        {
            "buffer" : 0,
            "byteLength" : 4800,
            "byteOffset" : 13344
        },
        {
            "buffer" : 0,
            "byteLength" : 1164,
            "byteOffset" : 18144
        },
        {
            "buffer" : 0,
            "byteLength" : 1164,
            "byteOffset" : 19308
        },
        {
            "buffer" : 0,
            "byteLength" : 776,
            "byteOffset" : 20472
        },
        {
            "buffer" : 0,
            "byteLength" : 960,
            "byteOffset" : 21248
        },
        {
            "buffer" : 0,
            "byteLength" : 780,
            "byteOffset" : 22208
        },
        {
            "buffer" : 0,
            "byteLength" : 780,
            "byteOffset" : 22988
        },
        {
            "buffer" : 0,
            "byteLength" : 520,
            "byteOffset" : 23768
        },
        {
            "buffer" : 0,
            "byteLength" : 576,
            "byteOffset" : 24288
        },
        {
            "buffer" : 0,
            "byteLength" : 768,
            "byteOffset" : 24864
        },
        {
            "buffer" : 0,
            "byteLength" : 768,
            "byteOffset" : 25632
        },
        {
            "buffer" : 0,
            "byteLength" : 512,
            "byteOffset" : 26400
        },
        {
            "buffer" : 0,
            "byteLength" : 384,
            "byteOffset" : 26912
        }
    ],
    "buffers" : [
        {
            "byteLength" : 27296,
            "uri" : "data:application/octet-stream;base64,"
        }
    ]
}
